<svg aria-hidden="true" style="position: absolute; width: 0; height: 0; overflow: hidden;" version="1.1" xmlns="http://www.w3.org/2000/svg" xmlns:xlink="http://www.w3.org/1999/xlink">
<defs>
<symbol id="icon-page1" viewBox="0 0 32 32">
<path fill="none" stroke-linejoin="round" stroke-linecap="round" stroke-miterlimit="4" stroke-width="3.2" d="M9.6 20.8v3.2M16 14.4v9.6M22.4 8v16M9.28 30.4h13.44c2.688 0 4.032 0 5.059-0.523 0.907-0.469 1.629-1.19 2.085-2.071l0.013-0.027c0.523-1.027 0.523-2.371 0.523-5.059v-13.44c0-2.688 0-4.032-0.523-5.059-0.469-0.907-1.19-1.629-2.071-2.085l-0.027-0.013c-1.027-0.523-2.371-0.523-5.059-0.523h-13.44c-2.688 0-4.032 0-5.059 0.523-0.907 0.469-1.629 1.19-2.085 2.071l-0.013 0.027c-0.523 1.027-0.523 2.371-0.523 5.059v13.44c0 2.688 0 4.032 0.523 5.059 0.469 0.907 1.19 1.629 2.071 2.085l0.027 0.013c1.027 0.523 2.371 0.523 5.059 0.523z"></path>
</symbol>
<symbol id="icon-settings" viewBox="0 0 32 32">
<path fill="none" stroke-linejoin="round" stroke-linecap="round" stroke-miterlimit="4" stroke-width="2.6667" d="M16 20c2.209 0 4-1.791 4-4s-1.791-4-4-4v0c-2.209 0-4 1.791-4 4s1.791 4 4 4v0z"></path>
<path fill="none" stroke-linejoin="round" stroke-linecap="round" stroke-miterlimit="4" stroke-width="2.6667" d="M24.969 19.636c-0.108 0.238-0.17 0.516-0.17 0.808 0 0.545 0.218 1.038 0.571 1.399l-0-0 0.073 0.072c0.44 0.439 0.712 1.045 0.712 1.715s-0.272 1.277-0.712 1.715l-0 0c-0.439 0.439-1.045 0.711-1.715 0.711s-1.277-0.272-1.715-0.711l-0.073-0.073c-0.36-0.353-0.854-0.57-1.398-0.57-0.292 0-0.57 0.063-0.82 0.175l0.013-0.005c-0.717 0.312-1.21 1.014-1.213 1.83v0.207c0 1.339-1.085 2.424-2.424 2.424s-2.424-1.085-2.424-2.424v-0.109c-0.020-0.838-0.552-1.546-1.294-1.826l-0.014-0.005c-0.238-0.108-0.516-0.17-0.808-0.17-0.545 0-1.038 0.218-1.399 0.571l0-0-0.072 0.073c-0.439 0.441-1.046 0.713-1.717 0.713-1.339 0-2.424-1.085-2.424-2.424 0-0.002 0-0.004 0-0.006v0c0-0.67 0.272-1.276 0.711-1.715v0l0.072-0.073c0.353-0.36 0.57-0.854 0.57-1.398 0-0.292-0.063-0.57-0.175-0.82l0.005 0.013c-0.312-0.717-1.013-1.209-1.829-1.213h-0.207c-1.339 0-2.424-1.085-2.424-2.424s1.085-2.424 2.424-2.424h0.109c0.838-0.020 1.546-0.552 1.826-1.294l0.005-0.014c0.108-0.238 0.17-0.516 0.17-0.808 0-0.545-0.218-1.038-0.571-1.399l0 0-0.073-0.072c-0.439-0.439-0.711-1.046-0.711-1.716 0-1.34 1.086-2.426 2.426-2.426 0.67 0 1.276 0.271 1.715 0.71l0.072 0.072c0.36 0.353 0.854 0.57 1.399 0.57 0.292 0 0.57-0.063 0.821-0.176l-0.013 0.005h0.097c0.716-0.313 1.208-1.013 1.212-1.829v-0.207c0-1.339 1.085-2.424 2.424-2.424s2.424 1.085 2.424 2.424v0 0.111c0.003 0.817 0.496 1.518 1.2 1.826l0.013 0.005c0.238 0.107 0.515 0.17 0.807 0.17 0.544 0 1.038-0.218 1.399-0.57l-0 0 0.072-0.073c0.439-0.44 1.045-0.712 1.715-0.712s1.277 0.272 1.715 0.712l0 0c0.439 0.439 0.711 1.045 0.711 1.715s-0.272 1.276-0.711 1.715v0l-0.073 0.072c-0.353 0.36-0.57 0.854-0.57 1.399 0 0.292 0.063 0.57 0.176 0.821l-0.005-0.013v0.097c0.313 0.716 1.014 1.209 1.83 1.212h0.207c1.339 0 2.424 1.085 2.424 2.424s-1.085 2.424-2.424 2.424v0h-0.109c-0.817 0.003-1.518 0.496-1.826 1.2l-0.005 0.013z"></path>
</symbol>
<symbol id="icon-home" viewBox="0 0 32 32">
<path fill="none" stroke-linejoin="round" stroke-linecap="round" stroke-miterlimit="4" stroke-width="3.0476" d="M9.905 24.381h12.19M14.504 2.688l-10.336 8.040c-0.69 0.538-1.036 0.808-1.285 1.143-0.211 0.282-0.377 0.612-0.479 0.969l-0.005 0.021c-0.113 0.402-0.113 0.84-0.113 1.714v11.025c0 1.707 0 2.56 0.332 3.212 0.298 0.576 0.756 1.034 1.315 1.324l0.017 0.008c0.652 0.332 1.506 0.332 3.212 0.332h17.676c1.707 0 2.56 0 3.212-0.332 0.576-0.298 1.034-0.756 1.324-1.315l0.008-0.017c0.332-0.652 0.332-1.506 0.332-3.212v-11.025c0-0.875 0-1.312-0.113-1.716-0.108-0.378-0.274-0.708-0.49-0.999l0.006 0.008c-0.248-0.335-0.594-0.605-1.285-1.143l-10.336-8.038c-0.535-0.416-0.803-0.625-1.097-0.704-0.119-0.034-0.257-0.053-0.398-0.053s-0.279 0.019-0.409 0.056l0.011-0.003c-0.296 0.079-0.564 0.288-1.099 0.704z"></path>
</symbol>
<symbol id="icon-page2" viewBox="0 0 32 32">
<path fill="none" stroke-linejoin="round" stroke-linecap="round" stroke-miterlimit="4" stroke-width="2.9091" d="M1.455 16l14.025 7.012c0.191 0.096 0.287 0.144 0.387 0.161 0.087 0.017 0.179 0.017 0.268 0 0.1-0.017 0.196-0.065 0.387-0.16l14.025-7.014M1.455 23.273l14.025 7.012c0.191 0.096 0.287 0.144 0.387 0.161 0.087 0.017 0.179 0.017 0.268 0 0.1-0.017 0.196-0.065 0.387-0.16l14.025-7.014M1.455 8.727l14.025-7.012c0.191-0.096 0.287-0.143 0.387-0.161 0.040-0.008 0.086-0.012 0.134-0.012s0.094 0.005 0.138 0.013l-0.005-0.001c0.1 0.019 0.196 0.065 0.387 0.16l14.025 7.014-14.025 7.012c-0.191 0.096-0.287 0.144-0.387 0.161-0.040 0.008-0.087 0.012-0.134 0.012s-0.094-0.005-0.138-0.013l0.005 0.001c-0.1-0.017-0.196-0.065-0.387-0.16l-14.025-7.014z"></path>
</symbol>
<symbol id="icon-page3" viewBox="0 0 32 32">
<path fill="none" stroke-linejoin="round" stroke-linecap="round" stroke-miterlimit="4" stroke-width="2.6667" d="M8 20l2.667 2.667 6-6M10.667 10.667v-3.733c0-1.493 0-2.24 0.291-2.811 0.261-0.504 0.661-0.905 1.151-1.158l0.015-0.007c0.571-0.291 1.317-0.291 2.811-0.291h10.133c1.493 0 2.24 0 2.811 0.291 0.504 0.261 0.905 0.661 1.158 1.151l0.007 0.015c0.291 0.571 0.291 1.317 0.291 2.811v10.133c0 1.493 0 2.24-0.291 2.811-0.261 0.504-0.661 0.905-1.151 1.158l-0.015 0.007c-0.571 0.291-1.317 0.291-2.811 0.291h-3.733M6.933 29.333h10.133c1.493 0 2.24 0 2.811-0.291 0.504-0.261 0.905-0.661 1.158-1.151l0.007-0.015c0.291-0.571 0.291-1.317 0.291-2.811v-10.133c0-1.493 0-2.24-0.291-2.811-0.261-0.504-0.661-0.905-1.151-1.158l-0.015-0.007c-0.571-0.291-1.317-0.291-2.811-0.291h-10.133c-1.493 0-2.24 0-2.811 0.291-0.504 0.261-0.905 0.661-1.158 1.15l-0.007 0.015c-0.291 0.571-0.291 1.317-0.291 2.811v10.133c0 1.493 0 2.24 0.291 2.811 0.261 0.504 0.661 0.905 1.151 1.158l0.015 0.007c0.571 0.291 1.317 0.291 2.811 0.291z"></path>
</symbol>
</defs>
</svg>
